<svg xmlns="http://www.w3.org/2000/svg" xmlns:xlink="http://www.w3.org/1999/xlink" width="600" zoomAndPan="magnify" viewBox="0 0 450 244.499993" height="326" preserveAspectRatio="xMidYMid meet" version="1.0"><defs><g/><clipPath id="9cd34ccef8"><path d="M 37.882812 37.640625 L 412.226562 37.640625 L 412.226562 206.359375 L 37.882812 206.359375 Z M 37.882812 37.640625 " clip-rule="nonzero"/></clipPath><clipPath id="f14f0d180c"><path d="M 55.097656 37.640625 L 394.902344 37.640625 C 404.410156 37.640625 412.117188 45.347656 412.117188 54.855469 L 412.117188 189.144531 C 412.117188 198.652344 404.410156 206.359375 394.902344 206.359375 L 55.097656 206.359375 C 45.589844 206.359375 37.882812 198.652344 37.882812 189.144531 L 37.882812 54.855469 C 37.882812 45.347656 45.589844 37.640625 55.097656 37.640625 " clip-rule="nonzero"/></clipPath></defs><g clip-path="url(#9cd34ccef8)"><g clip-path="url(#f14f0d180c)"><path fill="#121212" d="M 37.882812 37.640625 L 412.226562 37.640625 L 412.226562 206.359375 L 37.882812 206.359375 Z M 37.882812 37.640625 " fill-opacity="1" fill-rule="nonzero"/></g></g><g fill="#ffffff" fill-opacity="1"><g transform="translate(55.728342, 166.431779)"><g><path d="M 4.28125 0 L 4.28125 -5.203125 C 7.226562 -5.285156 9.585938 -5.539062 11.359375 -5.96875 C 13.140625 -6.40625 14.523438 -7.144531 15.515625 -8.1875 C 16.515625 -9.226562 17.1875 -10.695312 17.53125 -12.59375 C 17.882812 -14.5 18.0625 -16.96875 18.0625 -20 L 18.0625 -80.015625 C 18.0625 -83.046875 17.929688 -85.492188 17.671875 -87.359375 C 17.410156 -89.222656 16.867188 -90.695312 16.046875 -91.78125 C 15.222656 -92.863281 14.09375 -93.597656 12.65625 -93.984375 C 11.226562 -94.378906 9.347656 -94.660156 7.015625 -94.828125 L 7.015625 -100.03125 L 48.71875 -100.03125 C 61.789062 -100.03125 71.851562 -97.925781 78.90625 -93.71875 C 85.96875 -89.519531 89.5 -83.523438 89.5 -75.734375 C 89.5 -65.429688 82.097656 -58.15625 67.296875 -53.90625 L 67.296875 -53.390625 C 72.054688 -53.390625 76.363281 -52.71875 80.21875 -51.375 C 84.070312 -50.03125 87.335938 -48.144531 90.015625 -45.71875 C 92.703125 -43.300781 94.78125 -40.445312 96.25 -37.15625 C 97.726562 -33.863281 98.46875 -30.269531 98.46875 -26.375 C 98.46875 -21.957031 97.40625 -18.101562 95.28125 -14.8125 C 93.164062 -11.519531 90.113281 -8.75 86.125 -6.5 C 78.414062 -2.164062 67.804688 0 54.296875 0 Z M 55.203125 -7.921875 C 69.148438 -7.921875 76.125 -14.203125 76.125 -26.765625 C 76.125 -34.472656 73.613281 -40.101562 68.59375 -43.65625 C 65.988281 -45.46875 62.628906 -46.765625 58.515625 -47.546875 C 54.410156 -48.328125 49.367188 -48.71875 43.390625 -48.71875 L 37.15625 -48.71875 L 37.15625 -22.734375 C 37.15625 -17.359375 38.539062 -13.546875 41.3125 -11.296875 C 44.082031 -9.046875 48.710938 -7.921875 55.203125 -7.921875 Z M 44.8125 -56.515625 C 48.707031 -56.515625 52.082031 -56.878906 54.9375 -57.609375 C 57.800781 -58.347656 60.226562 -59.410156 62.21875 -60.796875 C 66.375 -63.648438 68.453125 -68.109375 68.453125 -74.171875 C 68.453125 -80.492188 66.894531 -85.0625 63.78125 -87.875 C 60.664062 -90.695312 55.644531 -92.109375 48.71875 -92.109375 L 39.484375 -92.109375 C 37.929688 -92.109375 37.15625 -91.367188 37.15625 -89.890625 L 37.15625 -56.515625 Z M 44.8125 -56.515625 "/></g></g></g><g fill="#ffffff" fill-opacity="1"><g transform="translate(159.268896, 166.431779)"><g><path d="M 37.28125 -20.921875 C 37.28125 -17.628906 37.492188 -14.960938 37.921875 -12.921875 C 38.359375 -10.890625 39.25 -9.332031 40.59375 -8.25 C 41.9375 -7.164062 43.84375 -6.40625 46.3125 -5.96875 C 48.78125 -5.539062 52.09375 -5.285156 56.25 -5.203125 L 56.25 0 L 4.546875 0 L 4.546875 -5.203125 C 7.398438 -5.285156 9.738281 -5.539062 11.5625 -5.96875 C 13.382812 -6.40625 14.769531 -7.144531 15.71875 -8.1875 C 16.664062 -9.226562 17.3125 -10.695312 17.65625 -12.59375 C 18.007812 -14.5 18.1875 -16.96875 18.1875 -20 L 18.1875 -80.015625 C 18.1875 -83.046875 18.035156 -85.492188 17.734375 -87.359375 C 17.429688 -89.222656 16.84375 -90.695312 15.96875 -91.78125 C 15.101562 -92.863281 13.867188 -93.597656 12.265625 -93.984375 C 10.671875 -94.378906 8.570312 -94.660156 5.96875 -94.828125 L 5.96875 -100.03125 L 85.484375 -100.03125 L 87.03125 -72.625 L 81.578125 -72.625 C 81.054688 -76.34375 80.296875 -79.476562 79.296875 -82.03125 C 78.304688 -84.59375 76.898438 -86.671875 75.078125 -88.265625 C 73.265625 -89.867188 70.925781 -91.015625 68.0625 -91.703125 C 65.207031 -92.398438 61.703125 -92.75 57.546875 -92.75 L 39.625 -92.75 C 38.0625 -92.75 37.28125 -92.015625 37.28125 -90.546875 L 37.28125 -53 C 42.5625 -53 46.867188 -53.210938 50.203125 -53.640625 C 53.535156 -54.078125 56.195312 -54.921875 58.1875 -56.171875 C 60.1875 -57.429688 61.617188 -59.144531 62.484375 -61.3125 C 63.347656 -63.476562 63.953125 -66.335938 64.296875 -69.890625 L 69.109375 -69.890625 L 69.109375 -29.234375 L 64.296875 -29.234375 C 63.785156 -32.867188 63.050781 -35.789062 62.09375 -38 C 61.144531 -40.207031 59.695312 -41.894531 57.75 -43.0625 C 55.800781 -44.226562 53.179688 -45.023438 49.890625 -45.453125 C 46.597656 -45.890625 42.394531 -46.109375 37.28125 -46.109375 Z M 37.28125 -20.921875 "/></g></g></g><g fill="#925aff" fill-opacity="1"><g transform="translate(248.769904, 166.431779)"><g><path d="M 31.953125 -11.171875 L 31.953125 -39.875 L 4.421875 -39.875 L 4.421875 -47.9375 L 31.953125 -47.9375 L 31.953125 -76.640625 L 40.796875 -76.640625 L 40.796875 -47.9375 L 68.328125 -47.9375 L 68.328125 -39.875 L 40.796875 -39.875 L 40.796875 -11.171875 Z M 31.953125 -11.171875 "/></g></g></g><g fill="#925aff" fill-opacity="1"><g transform="translate(321.521115, 166.431779)"><g><path d="M 31.953125 -11.171875 L 31.953125 -39.875 L 4.421875 -39.875 L 4.421875 -47.9375 L 31.953125 -47.9375 L 31.953125 -76.640625 L 40.796875 -76.640625 L 40.796875 -47.9375 L 68.328125 -47.9375 L 68.328125 -39.875 L 40.796875 -39.875 L 40.796875 -11.171875 Z M 31.953125 -11.171875 "/></g></g></g></svg>